<svg xmlns="http://www.w3.org/2000/svg" width="100" height="100" fill="none"><rect width="100" height="57.965" y="7.965" fill="#E7E7E7" rx="10"/><path fill="#E7E7E7" d="M77.876 65.93H48.23c6.404 13.114 4.132 21.582 3.925 25.713-.206 4.13 25.721-25.714 25.721-25.714"/><path fill="#1C1C1C" fill-rule="evenodd" d="M60.158 17 70 26.842l-9.842 9.842-3.754-3.755 3.432-3.432H34.387v-5.31h25.45l-3.433-3.433zM30.633 46.753l9.842 9.842 3.754-3.755-3.432-3.432h25.449v-5.31h-25.45l3.433-3.432-3.754-3.755z" clip-rule="evenodd"/><path fill="#1C1C1C" d="M79.925 42Q78 42 78 41.02v-2.873q0-.998 1.924-.998h1.026q.99 0 1.438.263.468.244.468.735v2.872q0 .981-1.906.981zm5.611-6.655q-.504 0-.737-.368-.234-.368-.234-1.19v-.21q0-.825.234-1.192.233-.385.737-.385h6.51q.504 0 .72.385.234.367.234 1.191v.21q0 .824-.234 1.191-.216.368-.72.368zm-73.792 9.914V46H7v-.741l1.352-.185q.27-.054.393-.106.123-.08.221-.345a15 15 0 0 0 .27-.846L13.932 28h2.114l4.718 15.776q.172.583.27.847.099.265.222.345.148.052.393.105L23 45.26V46h-6.783v-.741l1.351-.185q.394-.053.418-.212.05-.186-.221-1.086l-.934-3.282h-5.677l-.959 3.282q-.246.9-.221 1.086.024.159.418.212zm-.296-5.691h5.113l-2.532-8.789z"/></svg>