<svg width="474" height="100" viewBox="0 0 474 100" fill="none" xmlns="http://www.w3.org/2000/svg">
<rect y="7.9646" width="100" height="57.9646" rx="10" fill="#E7E7E7"/>
<path d="M77.876 65.9292H48.23C54.6343 79.0443 52.3618 87.5123 52.1552 91.643C51.9486 95.7737 77.876 65.9292 77.876 65.9292Z" fill="#E7E7E7"/>
<path fill-rule="evenodd" clip-rule="evenodd" d="M60.1582 16.9999L70.0001 26.8417L60.1582 36.6836L56.4037 32.929L59.8361 29.4966L34.3872 29.4966V24.1869L59.8361 24.1869L56.4037 20.7544L60.1582 16.9999Z" fill="#1C1C1C"/>
<path fill-rule="evenodd" clip-rule="evenodd" d="M30.6328 46.7531L40.4747 56.595L44.2292 52.8404L40.7968 49.408L66.2457 49.408L66.2457 44.0983L40.7968 44.0982L44.2292 40.6658L40.4747 36.9113L30.6328 46.7531Z" fill="#1C1C1C"/>
<path d="M79.9245 42C78.6415 42 78 41.6731 78 41.0193V38.1471C78 37.4816 78.6415 37.1489 79.9245 37.1489H80.9496C81.6091 37.1489 82.0887 37.2364 82.3885 37.4116C82.7002 37.575 82.8561 37.8202 82.8561 38.1471V41.0193C82.8561 41.6731 82.2206 42 80.9496 42H79.9245Z" fill="#1C1C1C"/>
<path d="M85.536 35.345C85.2002 35.345 84.9544 35.2224 84.7986 34.9772C84.6427 34.732 84.5647 34.3351 84.5647 33.7863V33.5762C84.5647 33.0274 84.6427 32.6305 84.7986 32.3853C84.9544 32.1284 85.2002 32 85.536 32H92.0468C92.3825 32 92.6223 32.1284 92.7662 32.3853C92.9221 32.6305 93 33.0274 93 33.5762V33.7863C93 34.3351 92.9221 34.732 92.7662 34.9772C92.6223 35.2224 92.3825 35.345 92.0468 35.345H85.536Z" fill="#1C1C1C"/>
<path d="M11.7435 45.2588V46H7V45.2588L8.35177 45.0735C8.532 45.0382 8.66308 45.0029 8.74501 44.9676C8.82693 44.9147 8.90067 44.8 8.96621 44.6235C9.03175 44.4471 9.12186 44.1647 9.23656 43.7765L13.9309 28H16.0445L20.7634 43.7765C20.8781 44.1647 20.9683 44.4471 21.0338 44.6235C21.0993 44.8 21.1731 44.9147 21.255 44.9676C21.3533 45.0029 21.4844 45.0382 21.6482 45.0735L23 45.2588V46H16.2166V45.2588L17.5684 45.0735C17.8305 45.0382 17.9698 44.9676 17.9862 44.8618C18.0189 44.7382 17.9452 44.3765 17.765 43.7765L16.831 40.4941H11.1536L10.1951 43.7765C10.0312 44.3765 9.9575 44.7382 9.97389 44.8618C9.99027 44.9676 10.1295 45.0382 10.3917 45.0735L11.7435 45.2588ZM11.4485 39.5676H16.5607L14.0292 30.7794L11.4485 39.5676Z" fill="#1C1C1C"/>
<g filter="url(#filter0_d_243_1955)">
<mask id="path-7-outside-1_243_1955" maskUnits="userSpaceOnUse" x="106" y="21" width="364" height="57" fill="black">
<rect fill="white" x="106" y="21" width="364" height="57"/>
<path d="M107 26.6732C107 25.1954 107.327 24.057 107.98 23.2582C108.633 22.4194 109.534 22 110.684 22L120.169 56.8094L119.424 59.6253L119.698 59.805L129.731 22C130.881 22 131.783 22.4194 132.436 23.2582C133.115 24.097 133.455 25.2553 133.455 26.7331V65.0174C131.025 65.0174 129.81 63.4797 129.81 60.4041V35.1808L130.829 31.0468L130.515 30.927L121.775 63.3998C121.645 63.8791 121.436 64.2585 121.148 64.5381C120.861 64.8577 120.561 65.0174 120.247 65.0174C119.907 65.0174 119.594 64.8776 119.306 64.598C119.019 64.3184 118.81 63.919 118.679 63.3998L109.939 30.8671L109.626 31.0468L110.645 35.1209V60.4041C110.645 61.9219 110.331 63.0802 109.704 63.8791C109.103 64.638 108.202 65.0174 107 65.0174V26.6732Z"/>
<path d="M146.405 65.0174C144.811 65.0174 143.361 64.5581 142.055 63.6394C140.774 62.7208 139.768 61.4826 139.037 59.9248C138.331 58.3272 137.979 56.5497 137.979 54.5926V44.7669C137.979 42.7698 138.331 40.9524 139.037 39.3148C139.768 37.6772 140.774 36.3791 142.055 35.4205C143.335 34.4619 144.785 33.9826 146.405 33.9826C148.025 33.9826 149.475 34.4619 150.755 35.4205C152.062 36.3791 153.068 37.6772 153.773 39.3148C154.505 40.9524 154.871 42.7698 154.871 44.7669V54.5926C154.871 56.5497 154.505 58.3272 153.773 59.9248C153.042 61.4826 152.036 62.7208 150.755 63.6394C149.475 64.5581 148.025 65.0174 146.405 65.0174ZM146.405 60.524C147.973 60.524 149.214 59.9648 150.128 58.8464C151.069 57.6881 151.539 56.1903 151.539 54.3529V44.9466C151.539 43.0294 151.069 41.4717 150.128 40.2734C149.214 39.0752 147.973 38.476 146.405 38.476C144.863 38.476 143.622 39.0752 142.682 40.2734C141.741 41.4717 141.271 43.0294 141.271 44.9466V54.3529C141.271 56.1903 141.728 57.6881 142.643 58.8464C143.583 59.9648 144.837 60.524 146.405 60.524Z"/>
<path d="M167.901 38.5959C166.438 38.5959 165.223 39.2749 164.256 40.6329C163.29 41.951 162.806 43.5686 162.806 45.4858V61.183C162.806 62.5011 162.519 63.4797 161.944 64.1187C161.395 64.7179 160.546 65.0174 159.397 65.0174V38.4161C159.397 35.4604 160.494 33.9826 162.689 33.9826V37.6373C162.271 38.3163 161.983 38.9154 161.827 39.4346L161.983 39.6743C163.656 35.8798 165.746 33.9826 168.254 33.9826C169.195 33.9826 169.913 34.342 170.41 35.061C170.906 35.74 171.154 36.5788 171.154 37.5773C171.154 38.2963 171.037 38.9354 170.802 39.4946C170.07 38.8954 169.103 38.5959 167.901 38.5959Z"/>
<path d="M181.379 65.0174C180.046 65.0174 178.792 64.7179 177.616 64.1187C176.441 63.4797 175.487 62.581 174.755 61.4227C174.05 60.2643 173.697 58.9063 173.697 57.3486C173.697 55.4314 174.455 54.3929 175.97 54.2331C176.232 56.4699 176.846 58.1275 177.812 59.2059C178.805 60.2444 180.059 60.7636 181.575 60.7636C183.09 60.7636 184.266 60.4241 185.102 59.7451C185.938 59.0661 186.356 58.0276 186.356 56.6296C186.356 55.6311 186.186 54.8322 185.847 54.2331C185.507 53.594 184.958 53.0548 184.201 52.6155C183.469 52.1362 182.411 51.6768 181.026 51.2375C179.302 50.6383 177.93 49.9993 176.911 49.3203C175.892 48.6413 175.108 47.7426 174.559 46.6242C174.037 45.5058 173.776 44.028 173.776 42.1906C173.776 40.6329 174.089 39.2349 174.716 37.9967C175.343 36.7186 176.206 35.74 177.303 35.061C178.426 34.342 179.694 33.9826 181.105 33.9826C182.411 33.9826 183.639 34.2622 184.789 34.8214C185.964 35.3805 186.905 36.1794 187.61 37.2179C188.342 38.2564 188.708 39.4546 188.708 40.8126C188.708 41.7313 188.473 42.4702 188.002 43.0294C187.532 43.5487 186.879 43.8482 186.043 43.9281C185.964 42.1707 185.494 40.7927 184.632 39.7941C183.796 38.7556 182.62 38.2364 181.105 38.2364C179.85 38.2364 178.858 38.5959 178.126 39.3148C177.394 40.0338 177.029 40.9924 177.029 42.1906C177.029 43.4688 177.368 44.4274 178.048 45.0665C178.753 45.6656 179.942 46.2447 181.614 46.8039C184.358 47.6427 186.369 48.801 187.65 50.2789C188.956 51.7168 189.609 53.7738 189.609 56.4499C189.609 59.1659 188.891 61.2829 187.454 62.8007C186.017 64.2785 183.992 65.0174 181.379 65.0174Z"/>
<path d="M201.989 65.0174C200.395 65.0174 198.971 64.5581 197.717 63.6394C196.462 62.6808 195.483 61.3827 194.777 59.7451C194.072 58.0675 193.719 56.1903 193.719 54.1133V45.2462C193.719 43.1293 194.085 41.2121 194.816 39.4946C195.574 37.7771 196.58 36.439 197.834 35.4804C199.114 34.4818 200.499 33.9826 201.989 33.9826C203.478 33.9826 204.836 34.4619 206.064 35.4205C207.319 36.3791 208.298 37.6972 209.004 39.3747C209.736 41.0523 210.101 42.9495 210.101 45.0665V48.9009C210.101 49.5399 209.945 50.0792 209.631 50.5185C209.317 50.9579 208.939 51.1776 208.494 51.1776H197.05V53.8736C197.05 55.9107 197.468 57.5483 198.304 58.7865C199.167 60.0247 200.395 60.6438 201.989 60.6438C203.582 60.6438 204.797 60.1046 205.633 59.0261C206.469 57.9477 206.888 56.4898 206.888 54.6525C207.671 54.5726 208.325 54.8123 208.847 55.3715C209.396 55.8907 209.67 56.6696 209.67 57.7081C209.67 58.9862 209.304 60.1845 208.573 61.3028C207.867 62.4212 206.927 63.3199 205.751 63.9989C204.575 64.6779 203.321 65.0174 201.989 65.0174ZM206.927 47.1035V45.0665C206.927 43.0694 206.469 41.4517 205.555 40.2135C204.667 38.9354 203.478 38.2963 201.989 38.2963C200.499 38.2963 199.297 38.9354 198.383 40.2135C197.494 41.4517 197.05 43.0694 197.05 45.0665V47.1035H206.927Z"/>
<path d="M224.424 65.0174C222.229 65.0174 220.321 64.5381 218.702 63.5795C217.108 62.6209 215.893 61.3428 215.057 59.7451C214.221 58.1474 213.803 56.4299 213.803 54.5926C213.803 53.0748 214.064 51.9165 214.586 51.1177C215.109 50.2789 215.906 49.8595 216.977 49.8595C216.977 53.2545 217.643 55.8508 218.976 57.6482C220.308 59.4056 222.177 60.2843 224.58 60.2843C226.88 60.2843 228.643 59.7052 229.871 58.5468C231.099 57.3486 231.713 55.5911 231.713 53.2745C231.713 51.8765 231.478 50.7382 231.008 49.8595C230.564 48.9408 229.793 48.1619 228.696 47.5229C227.624 46.8439 226.07 46.1649 224.032 45.4858C221.628 44.687 219.721 43.7683 218.31 42.7298C216.899 41.6514 215.867 40.3533 215.213 38.8355C214.56 37.3177 214.234 35.4405 214.234 33.2037C214.234 30.967 214.639 29.0098 215.449 27.3322C216.285 25.6147 217.46 24.2967 218.976 23.378C220.491 22.4593 222.255 22 224.267 22C226.174 22 227.873 22.4194 229.362 23.2582C230.877 24.057 232.053 25.2153 232.889 26.7331C233.751 28.211 234.182 29.8885 234.182 31.7658C234.182 32.9241 233.934 33.8428 233.438 34.5218C232.968 35.1609 232.223 35.4804 231.204 35.4804C230.916 32.4448 230.211 30.228 229.087 28.8301C227.99 27.4321 226.383 26.7331 224.267 26.7331C222.229 26.7331 220.661 27.2923 219.564 28.4107C218.466 29.4891 217.918 31.0269 217.918 33.024C217.918 34.4219 218.114 35.5802 218.506 36.4989C218.924 37.3776 219.616 38.1365 220.583 38.7756C221.576 39.4147 222.96 40.0338 224.737 40.6329C227.402 41.5116 229.492 42.4902 231.008 43.5686C232.549 44.6471 233.66 45.9651 234.339 47.5229C235.019 49.0806 235.358 50.9978 235.358 53.2745C235.358 56.9092 234.365 59.785 232.38 61.902C230.394 63.9789 227.742 65.0174 224.424 65.0174Z"/>
<path d="M247.726 65.0174C246.132 65.0174 244.708 64.5581 243.454 63.6394C242.199 62.6808 241.22 61.3827 240.514 59.7451C239.809 58.0675 239.456 56.1903 239.456 54.1133V45.2462C239.456 43.1293 239.822 41.2121 240.553 39.4946C241.311 37.7771 242.317 36.439 243.571 35.4804C244.851 34.4818 246.236 33.9826 247.726 33.9826C249.215 33.9826 250.574 34.4619 251.802 35.4205C253.056 36.3791 254.035 37.6972 254.741 39.3747C255.473 41.0523 255.838 42.9495 255.838 45.0665V48.9009C255.838 49.5399 255.682 50.0792 255.368 50.5185C255.054 50.9579 254.676 51.1776 254.231 51.1776H242.787V53.8736C242.787 55.9107 243.205 57.5483 244.041 58.7865C244.904 60.0247 246.132 60.6438 247.726 60.6438C249.319 60.6438 250.534 60.1046 251.37 59.0261C252.207 57.9477 252.625 56.4898 252.625 54.6525C253.408 54.5726 254.062 54.8123 254.584 55.3715C255.133 55.8907 255.407 56.6696 255.407 57.7081C255.407 58.9862 255.041 60.1845 254.31 61.3028C253.604 62.4212 252.664 63.3199 251.488 63.9989C250.312 64.6779 249.058 65.0174 247.726 65.0174ZM252.664 47.1035V45.0665C252.664 43.0694 252.207 41.4517 251.292 40.2135C250.404 38.9354 249.215 38.2963 247.726 38.2963C246.236 38.2963 245.034 38.9354 244.12 40.2135C243.231 41.4517 242.787 43.0694 242.787 45.0665V47.1035H252.664Z"/>
<path d="M268.201 65.0174C266.607 65.0174 265.183 64.5781 263.929 63.6993C262.675 62.8206 261.695 61.5824 260.99 59.9848C260.31 58.3871 259.971 56.5697 259.971 54.5327V44.8268C259.971 42.7099 260.31 40.8326 260.99 39.195C261.695 37.5574 262.662 36.2792 263.89 35.3606C265.118 34.4419 266.529 33.9826 268.123 33.9826C269.612 33.9826 270.931 34.3221 272.081 35.0011C273.257 35.6402 274.171 36.5588 274.825 37.7571C275.478 38.9553 275.804 40.3134 275.804 41.8312C275.804 42.8297 275.543 43.6485 275.02 44.2876C274.524 44.8867 273.871 45.1463 273.061 45.0665C273.061 43.1492 272.604 41.5915 271.689 40.3932C270.801 39.195 269.638 38.5959 268.201 38.5959C266.764 38.5959 265.601 39.195 264.713 40.3932C263.825 41.5516 263.38 43.0694 263.38 44.9466V54.293C263.38 56.0904 263.838 57.5683 264.752 58.7266C265.667 59.845 266.842 60.4041 268.279 60.4041C269.716 60.4041 270.879 59.805 271.768 58.6068C272.682 57.4085 273.139 55.8707 273.139 53.9935C273.975 53.9136 274.642 54.1732 275.138 54.7723C275.661 55.3315 275.922 56.1304 275.922 57.1689C275.922 58.6866 275.595 60.0447 274.942 61.2429C274.289 62.4412 273.374 63.3798 272.199 64.0588C271.023 64.6979 269.69 65.0174 268.201 65.0174Z"/>
<path d="M288.923 38.5959C287.46 38.5959 286.245 39.2749 285.278 40.6329C284.311 41.951 283.828 43.5686 283.828 45.4858V61.183C283.828 62.5011 283.54 63.4797 282.965 64.1187C282.417 64.7179 281.568 65.0174 280.418 65.0174V38.4161C280.418 35.4604 281.515 33.9826 283.71 33.9826V37.6373C283.292 38.3163 283.005 38.9154 282.848 39.4346L283.005 39.6743C284.677 35.8798 286.767 33.9826 289.275 33.9826C290.216 33.9826 290.935 34.342 291.431 35.061C291.927 35.74 292.176 36.5788 292.176 37.5773C292.176 38.2963 292.058 38.9354 291.823 39.4946C291.091 38.8954 290.125 38.5959 288.923 38.5959Z"/>
<path d="M302.419 65.0174C300.825 65.0174 299.401 64.5581 298.147 63.6394C296.893 62.6808 295.913 61.3827 295.207 59.7451C294.502 58.0675 294.149 56.1903 294.149 54.1133V45.2462C294.149 43.1293 294.515 41.2121 295.246 39.4946C296.004 37.7771 297.01 36.439 298.264 35.4804C299.545 34.4818 300.929 33.9826 302.419 33.9826C303.908 33.9826 305.267 34.4619 306.495 35.4205C307.749 36.3791 308.729 37.6972 309.434 39.3747C310.166 41.0523 310.531 42.9495 310.531 45.0665V48.9009C310.531 49.5399 310.375 50.0792 310.061 50.5185C309.748 50.9579 309.369 51.1776 308.925 51.1776H297.48V53.8736C297.48 55.9107 297.898 57.5483 298.735 58.7865C299.597 60.0247 300.825 60.6438 302.419 60.6438C304.012 60.6438 305.227 60.1046 306.063 59.0261C306.9 57.9477 307.318 56.4898 307.318 54.6525C308.101 54.5726 308.755 54.8123 309.277 55.3715C309.826 55.8907 310.1 56.6696 310.1 57.7081C310.1 58.9862 309.735 60.1845 309.003 61.3028C308.297 62.4212 307.357 63.3199 306.181 63.9989C305.005 64.6779 303.751 65.0174 302.419 65.0174ZM307.357 47.1035V45.0665C307.357 43.0694 306.9 41.4517 305.985 40.2135C305.097 38.9354 303.908 38.2963 302.419 38.2963C300.929 38.2963 299.727 38.9354 298.813 40.2135C297.925 41.4517 297.48 43.0694 297.48 45.0665V47.1035H307.357Z"/>
<path d="M321.86 65.0174C320.005 65.0174 318.62 64.2186 317.705 62.6209C316.791 60.9833 316.334 58.8464 316.334 56.2102V38.7157H312.689C312.689 37.3577 312.885 36.3192 313.277 35.6002C313.669 34.8813 314.204 34.5218 314.884 34.5218H316.373V28.8301C316.373 27.512 316.647 26.5534 317.196 25.9543C317.771 25.3152 318.62 24.9956 319.743 24.9956V34.5218H324.956C324.956 37.3177 324.133 38.7157 322.487 38.7157H319.783V56.0305C319.783 57.6282 319.965 58.7665 320.331 59.4455C320.723 60.0846 321.416 60.4041 322.408 60.4041C323.323 60.4041 324.185 60.0447 324.995 59.3257C325.335 59.845 325.505 60.5439 325.505 61.4227C325.505 62.3813 325.178 63.22 324.525 63.939C323.872 64.658 322.983 65.0174 321.86 65.0174Z"/>
<path d="M339.436 65.0174C337.241 65.0174 335.334 64.5381 333.714 63.5795C332.12 62.6209 330.905 61.3428 330.069 59.7451C329.233 58.1474 328.815 56.4299 328.815 54.5926C328.815 53.0748 329.076 51.9165 329.599 51.1177C330.121 50.2789 330.918 49.8595 331.989 49.8595C331.989 53.2545 332.656 55.8508 333.988 57.6482C335.321 59.4056 337.189 60.2843 339.593 60.2843C341.892 60.2843 343.656 59.7052 344.884 58.5468C346.112 57.3486 346.726 55.5911 346.726 53.2745C346.726 51.8765 346.491 50.7382 346.02 49.8595C345.576 48.9408 344.805 48.1619 343.708 47.5229C342.637 46.8439 341.082 46.1649 339.044 45.4858C336.64 44.687 334.733 43.7683 333.322 42.7298C331.911 41.6514 330.879 40.3533 330.226 38.8355C329.573 37.3177 329.246 35.4405 329.246 33.2037C329.246 30.967 329.651 29.0098 330.461 27.3322C331.297 25.6147 332.473 24.2967 333.988 23.378C335.504 22.4593 337.267 22 339.279 22C341.187 22 342.885 22.4194 344.374 23.2582C345.89 24.057 347.065 25.2153 347.902 26.7331C348.764 28.211 349.195 29.8885 349.195 31.7658C349.195 32.9241 348.947 33.8428 348.45 34.5218C347.98 35.1609 347.235 35.4804 346.216 35.4804C345.929 32.4448 345.223 30.228 344.1 28.8301C343.002 27.4321 341.396 26.7331 339.279 26.7331C337.241 26.7331 335.674 27.2923 334.576 28.4107C333.479 29.4891 332.93 31.0269 332.93 33.024C332.93 34.4219 333.126 35.5802 333.518 36.4989C333.936 37.3776 334.628 38.1365 335.595 38.7756C336.588 39.4147 337.973 40.0338 339.75 40.6329C342.415 41.5116 344.505 42.4902 346.02 43.5686C347.562 44.6471 348.672 45.9651 349.352 47.5229C350.031 49.0806 350.371 50.9978 350.371 53.2745C350.371 56.9092 349.378 59.785 347.392 61.902C345.406 63.9789 342.754 65.0174 339.436 65.0174Z"/>
<path d="M362.699 65.0174C361.105 65.0174 359.681 64.5781 358.427 63.6993C357.173 62.8206 356.193 61.5824 355.487 59.9848C354.808 58.3871 354.468 56.5697 354.468 54.5327V44.8268C354.468 42.7099 354.808 40.8326 355.487 39.195C356.193 37.5574 357.16 36.2792 358.388 35.3606C359.616 34.4419 361.027 33.9826 362.62 33.9826C364.11 33.9826 365.429 34.3221 366.579 35.0011C367.755 35.6402 368.669 36.5588 369.322 37.7571C369.975 38.9553 370.302 40.3134 370.302 41.8312C370.302 42.8297 370.041 43.6485 369.518 44.2876C369.022 44.8867 368.369 45.1463 367.559 45.0665C367.559 43.1492 367.101 41.5915 366.187 40.3932C365.298 39.195 364.136 38.5959 362.699 38.5959C361.262 38.5959 360.099 39.195 359.211 40.3932C358.322 41.5516 357.878 43.0694 357.878 44.9466V54.293C357.878 56.0904 358.335 57.5683 359.25 58.7266C360.164 59.845 361.34 60.4041 362.777 60.4041C364.214 60.4041 365.377 59.805 366.265 58.6068C367.18 57.4085 367.637 55.8707 367.637 53.9935C368.473 53.9136 369.139 54.1732 369.636 54.7723C370.158 55.3315 370.42 56.1304 370.42 57.1689C370.42 58.6866 370.093 60.0447 369.44 61.2429C368.787 62.4412 367.872 63.3798 366.696 64.0588C365.521 64.6979 364.188 65.0174 362.699 65.0174Z"/>
<path d="M383.42 38.5959C381.957 38.5959 380.742 39.2749 379.776 40.6329C378.809 41.951 378.325 43.5686 378.325 45.4858V61.183C378.325 62.5011 378.038 63.4797 377.463 64.1187C376.914 64.7179 376.065 65.0174 374.916 65.0174V38.4161C374.916 35.4604 376.013 33.9826 378.208 33.9826V37.6373C377.79 38.3163 377.502 38.9154 377.346 39.4346L377.502 39.6743C379.175 35.8798 381.265 33.9826 383.773 33.9826C384.714 33.9826 385.432 34.342 385.929 35.061C386.425 35.74 386.673 36.5788 386.673 37.5773C386.673 38.2963 386.556 38.9354 386.321 39.4946C385.589 38.8954 384.622 38.5959 383.42 38.5959Z"/>
<path d="M392.391 29.4891C391.659 29.4891 391.045 29.1296 390.549 28.4107C390.052 27.6917 389.804 26.793 389.804 25.7146C389.804 24.6362 390.052 23.7574 390.549 23.0784C391.045 22.3595 391.659 22 392.391 22C393.096 22 393.697 22.3595 394.194 23.0784C394.69 23.7574 394.938 24.6362 394.938 25.7146C394.938 26.793 394.69 27.6917 394.194 28.4107C393.697 29.1296 393.096 29.4891 392.391 29.4891ZM390.666 37.817C390.666 36.4989 390.941 35.5403 391.489 34.9412C392.064 34.3021 392.926 33.9826 394.076 33.9826V61.183C394.076 62.5011 393.789 63.4797 393.214 64.1187C392.665 64.7179 391.816 65.0174 390.666 65.0174V37.817Z"/>
<path d="M400.444 38.2364C400.444 36.9183 400.705 35.8798 401.228 35.1209C401.777 34.362 402.6 33.9826 403.697 33.9826V37.3377L402.913 38.8954L403.031 39.1351C403.841 37.5374 404.768 36.2792 405.814 35.3606C406.859 34.4419 408.1 33.9826 409.537 33.9826C411.784 33.9826 413.6 34.9412 414.985 36.8584C416.369 38.7357 417.062 41.252 417.062 44.4074V54.6525C417.062 57.8079 416.343 60.3243 414.906 62.2015C413.469 64.0788 411.601 65.0174 409.302 65.0174C408.074 65.0174 406.937 64.638 405.892 63.8791C404.873 63.0802 403.971 62.0418 403.188 60.7636L403.07 61.0632C403.253 61.4626 403.527 61.902 403.893 62.3813V72.9259C403.893 75.642 402.743 77 400.444 77V38.2364ZM408.792 60.4041C410.334 60.4041 411.536 59.8849 412.398 58.8464C413.26 57.768 413.691 56.2901 413.691 54.4129V44.6471C413.691 42.6899 413.26 41.1921 412.398 40.1536C411.536 39.1151 410.321 38.5959 408.753 38.5959C407.368 38.5959 406.205 39.155 405.265 40.2734C404.324 41.3519 403.854 42.7099 403.854 44.3475V54.7124C403.854 56.3101 404.298 57.6681 405.186 58.7865C406.075 59.8649 407.277 60.4041 408.792 60.4041Z"/>
<path d="M428.95 65.0174C427.094 65.0174 425.71 64.2186 424.795 62.6209C423.881 60.9833 423.423 58.8464 423.423 56.2102V38.7157H419.779C419.779 37.3577 419.975 36.3192 420.366 35.6002C420.758 34.8813 421.294 34.5218 421.973 34.5218H423.463V28.8301C423.463 27.512 423.737 26.5534 424.286 25.9543C424.86 25.3152 425.71 24.9956 426.833 24.9956V34.5218H432.046C432.046 37.3177 431.223 38.7157 429.577 38.7157H426.872V56.0305C426.872 57.6282 427.055 58.7665 427.421 59.4455C427.813 60.0846 428.505 60.4041 429.498 60.4041C430.413 60.4041 431.275 60.0447 432.085 59.3257C432.425 59.845 432.594 60.5439 432.594 61.4227C432.594 62.3813 432.268 63.22 431.615 63.939C430.961 64.658 430.073 65.0174 428.95 65.0174Z"/>
<path d="M444.605 65.0174C443.011 65.0174 441.587 64.5581 440.333 63.6394C439.079 62.6808 438.099 61.3827 437.394 59.7451C436.688 58.0675 436.336 56.1903 436.336 54.1133V45.2462C436.336 43.1293 436.702 41.2121 437.433 39.4946C438.191 37.7771 439.197 36.439 440.451 35.4804C441.731 34.4818 443.116 33.9826 444.605 33.9826C446.095 33.9826 447.453 34.4619 448.681 35.4205C449.935 36.3791 450.915 37.6972 451.621 39.3747C452.352 41.0523 452.718 42.9495 452.718 45.0665V48.9009C452.718 49.5399 452.561 50.0792 452.248 50.5185C451.934 50.9579 451.555 51.1776 451.111 51.1776H439.667V53.8736C439.667 55.9107 440.085 57.5483 440.921 58.7865C441.783 60.0247 443.011 60.6438 444.605 60.6438C446.199 60.6438 447.414 60.1046 448.25 59.0261C449.086 57.9477 449.504 56.4898 449.504 54.6525C450.288 54.5726 450.941 54.8123 451.464 55.3715C452.013 55.8907 452.287 56.6696 452.287 57.7081C452.287 58.9862 451.921 60.1845 451.19 61.3028C450.484 62.4212 449.544 63.3199 448.368 63.9989C447.192 64.6779 445.938 65.0174 444.605 65.0174ZM449.544 47.1035V45.0665C449.544 43.0694 449.086 41.4517 448.172 40.2135C447.283 38.9354 446.095 38.2963 444.605 38.2963C443.116 38.2963 441.914 38.9354 441 40.2135C440.111 41.4517 439.667 43.0694 439.667 45.0665V47.1035H449.544Z"/>
<path d="M465.747 38.5959C464.284 38.5959 463.069 39.2749 462.102 40.6329C461.135 41.951 460.652 43.5686 460.652 45.4858V61.183C460.652 62.5011 460.365 63.4797 459.79 64.1187C459.241 64.7179 458.392 65.0174 457.242 65.0174V38.4161C457.242 35.4604 458.34 33.9826 460.534 33.9826V37.6373C460.116 38.3163 459.829 38.9154 459.672 39.4346L459.829 39.6743C461.501 35.8798 463.591 33.9826 466.1 33.9826C467.04 33.9826 467.759 34.342 468.255 35.061C468.752 35.74 469 36.5788 469 37.5773C469 38.2963 468.882 38.9354 468.647 39.4946C467.916 38.8954 466.949 38.5959 465.747 38.5959Z"/>
</mask>
<path d="M107 26.6732C107 25.1954 107.327 24.057 107.98 23.2582C108.633 22.4194 109.534 22 110.684 22L120.169 56.8094L119.424 59.6253L119.698 59.805L129.731 22C130.881 22 131.783 22.4194 132.436 23.2582C133.115 24.097 133.455 25.2553 133.455 26.7331V65.0174C131.025 65.0174 129.81 63.4797 129.81 60.4041V35.1808L130.829 31.0468L130.515 30.927L121.775 63.3998C121.645 63.8791 121.436 64.2585 121.148 64.5381C120.861 64.8577 120.561 65.0174 120.247 65.0174C119.907 65.0174 119.594 64.8776 119.306 64.598C119.019 64.3184 118.81 63.919 118.679 63.3998L109.939 30.8671L109.626 31.0468L110.645 35.1209V60.4041C110.645 61.9219 110.331 63.0802 109.704 63.8791C109.103 64.638 108.202 65.0174 107 65.0174V26.6732Z" fill="#E7E7E7"/>
<path d="M146.405 65.0174C144.811 65.0174 143.361 64.5581 142.055 63.6394C140.774 62.7208 139.768 61.4826 139.037 59.9248C138.331 58.3272 137.979 56.5497 137.979 54.5926V44.7669C137.979 42.7698 138.331 40.9524 139.037 39.3148C139.768 37.6772 140.774 36.3791 142.055 35.4205C143.335 34.4619 144.785 33.9826 146.405 33.9826C148.025 33.9826 149.475 34.4619 150.755 35.4205C152.062 36.3791 153.068 37.6772 153.773 39.3148C154.505 40.9524 154.871 42.7698 154.871 44.7669V54.5926C154.871 56.5497 154.505 58.3272 153.773 59.9248C153.042 61.4826 152.036 62.7208 150.755 63.6394C149.475 64.5581 148.025 65.0174 146.405 65.0174ZM146.405 60.524C147.973 60.524 149.214 59.9648 150.128 58.8464C151.069 57.6881 151.539 56.1903 151.539 54.3529V44.9466C151.539 43.0294 151.069 41.4717 150.128 40.2734C149.214 39.0752 147.973 38.476 146.405 38.476C144.863 38.476 143.622 39.0752 142.682 40.2734C141.741 41.4717 141.271 43.0294 141.271 44.9466V54.3529C141.271 56.1903 141.728 57.6881 142.643 58.8464C143.583 59.9648 144.837 60.524 146.405 60.524Z" fill="#E7E7E7"/>
<path d="M167.901 38.5959C166.438 38.5959 165.223 39.2749 164.256 40.6329C163.29 41.951 162.806 43.5686 162.806 45.4858V61.183C162.806 62.5011 162.519 63.4797 161.944 64.1187C161.395 64.7179 160.546 65.0174 159.397 65.0174V38.4161C159.397 35.4604 160.494 33.9826 162.689 33.9826V37.6373C162.271 38.3163 161.983 38.9154 161.827 39.4346L161.983 39.6743C163.656 35.8798 165.746 33.9826 168.254 33.9826C169.195 33.9826 169.913 34.342 170.41 35.061C170.906 35.74 171.154 36.5788 171.154 37.5773C171.154 38.2963 171.037 38.9354 170.802 39.4946C170.07 38.8954 169.103 38.5959 167.901 38.5959Z" fill="#E7E7E7"/>
<path d="M181.379 65.0174C180.046 65.0174 178.792 64.7179 177.616 64.1187C176.441 63.4797 175.487 62.581 174.755 61.4227C174.05 60.2643 173.697 58.9063 173.697 57.3486C173.697 55.4314 174.455 54.3929 175.97 54.2331C176.232 56.4699 176.846 58.1275 177.812 59.2059C178.805 60.2444 180.059 60.7636 181.575 60.7636C183.09 60.7636 184.266 60.4241 185.102 59.7451C185.938 59.0661 186.356 58.0276 186.356 56.6296C186.356 55.6311 186.186 54.8322 185.847 54.2331C185.507 53.594 184.958 53.0548 184.201 52.6155C183.469 52.1362 182.411 51.6768 181.026 51.2375C179.302 50.6383 177.93 49.9993 176.911 49.3203C175.892 48.6413 175.108 47.7426 174.559 46.6242C174.037 45.5058 173.776 44.028 173.776 42.1906C173.776 40.6329 174.089 39.2349 174.716 37.9967C175.343 36.7186 176.206 35.74 177.303 35.061C178.426 34.342 179.694 33.9826 181.105 33.9826C182.411 33.9826 183.639 34.2622 184.789 34.8214C185.964 35.3805 186.905 36.1794 187.61 37.2179C188.342 38.2564 188.708 39.4546 188.708 40.8126C188.708 41.7313 188.473 42.4702 188.002 43.0294C187.532 43.5487 186.879 43.8482 186.043 43.9281C185.964 42.1707 185.494 40.7927 184.632 39.7941C183.796 38.7556 182.62 38.2364 181.105 38.2364C179.85 38.2364 178.858 38.5959 178.126 39.3148C177.394 40.0338 177.029 40.9924 177.029 42.1906C177.029 43.4688 177.368 44.4274 178.048 45.0665C178.753 45.6656 179.942 46.2447 181.614 46.8039C184.358 47.6427 186.369 48.801 187.65 50.2789C188.956 51.7168 189.609 53.7738 189.609 56.4499C189.609 59.1659 188.891 61.2829 187.454 62.8007C186.017 64.2785 183.992 65.0174 181.379 65.0174Z" fill="#E7E7E7"/>
<path d="M201.989 65.0174C200.395 65.0174 198.971 64.5581 197.717 63.6394C196.462 62.6808 195.483 61.3827 194.777 59.7451C194.072 58.0675 193.719 56.1903 193.719 54.1133V45.2462C193.719 43.1293 194.085 41.2121 194.816 39.4946C195.574 37.7771 196.58 36.439 197.834 35.4804C199.114 34.4818 200.499 33.9826 201.989 33.9826C203.478 33.9826 204.836 34.4619 206.064 35.4205C207.319 36.3791 208.298 37.6972 209.004 39.3747C209.736 41.0523 210.101 42.9495 210.101 45.0665V48.9009C210.101 49.5399 209.945 50.0792 209.631 50.5185C209.317 50.9579 208.939 51.1776 208.494 51.1776H197.05V53.8736C197.05 55.9107 197.468 57.5483 198.304 58.7865C199.167 60.0247 200.395 60.6438 201.989 60.6438C203.582 60.6438 204.797 60.1046 205.633 59.0261C206.469 57.9477 206.888 56.4898 206.888 54.6525C207.671 54.5726 208.325 54.8123 208.847 55.3715C209.396 55.8907 209.67 56.6696 209.67 57.7081C209.67 58.9862 209.304 60.1845 208.573 61.3028C207.867 62.4212 206.927 63.3199 205.751 63.9989C204.575 64.6779 203.321 65.0174 201.989 65.0174ZM206.927 47.1035V45.0665C206.927 43.0694 206.469 41.4517 205.555 40.2135C204.667 38.9354 203.478 38.2963 201.989 38.2963C200.499 38.2963 199.297 38.9354 198.383 40.2135C197.494 41.4517 197.05 43.0694 197.05 45.0665V47.1035H206.927Z" fill="#E7E7E7"/>
<path d="M224.424 65.0174C222.229 65.0174 220.321 64.5381 218.702 63.5795C217.108 62.6209 215.893 61.3428 215.057 59.7451C214.221 58.1474 213.803 56.4299 213.803 54.5926C213.803 53.0748 214.064 51.9165 214.586 51.1177C215.109 50.2789 215.906 49.8595 216.977 49.8595C216.977 53.2545 217.643 55.8508 218.976 57.6482C220.308 59.4056 222.177 60.2843 224.58 60.2843C226.88 60.2843 228.643 59.7052 229.871 58.5468C231.099 57.3486 231.713 55.5911 231.713 53.2745C231.713 51.8765 231.478 50.7382 231.008 49.8595C230.564 48.9408 229.793 48.1619 228.696 47.5229C227.624 46.8439 226.07 46.1649 224.032 45.4858C221.628 44.687 219.721 43.7683 218.31 42.7298C216.899 41.6514 215.867 40.3533 215.213 38.8355C214.56 37.3177 214.234 35.4405 214.234 33.2037C214.234 30.967 214.639 29.0098 215.449 27.3322C216.285 25.6147 217.46 24.2967 218.976 23.378C220.491 22.4593 222.255 22 224.267 22C226.174 22 227.873 22.4194 229.362 23.2582C230.877 24.057 232.053 25.2153 232.889 26.7331C233.751 28.211 234.182 29.8885 234.182 31.7658C234.182 32.9241 233.934 33.8428 233.438 34.5218C232.968 35.1609 232.223 35.4804 231.204 35.4804C230.916 32.4448 230.211 30.228 229.087 28.8301C227.99 27.4321 226.383 26.7331 224.267 26.7331C222.229 26.7331 220.661 27.2923 219.564 28.4107C218.466 29.4891 217.918 31.0269 217.918 33.024C217.918 34.4219 218.114 35.5802 218.506 36.4989C218.924 37.3776 219.616 38.1365 220.583 38.7756C221.576 39.4147 222.96 40.0338 224.737 40.6329C227.402 41.5116 229.492 42.4902 231.008 43.5686C232.549 44.6471 233.66 45.9651 234.339 47.5229C235.019 49.0806 235.358 50.9978 235.358 53.2745C235.358 56.9092 234.365 59.785 232.38 61.902C230.394 63.9789 227.742 65.0174 224.424 65.0174Z" fill="#E7E7E7"/>
<path d="M247.726 65.0174C246.132 65.0174 244.708 64.5581 243.454 63.6394C242.199 62.6808 241.22 61.3827 240.514 59.7451C239.809 58.0675 239.456 56.1903 239.456 54.1133V45.2462C239.456 43.1293 239.822 41.2121 240.553 39.4946C241.311 37.7771 242.317 36.439 243.571 35.4804C244.851 34.4818 246.236 33.9826 247.726 33.9826C249.215 33.9826 250.574 34.4619 251.802 35.4205C253.056 36.3791 254.035 37.6972 254.741 39.3747C255.473 41.0523 255.838 42.9495 255.838 45.0665V48.9009C255.838 49.5399 255.682 50.0792 255.368 50.5185C255.054 50.9579 254.676 51.1776 254.231 51.1776H242.787V53.8736C242.787 55.9107 243.205 57.5483 244.041 58.7865C244.904 60.0247 246.132 60.6438 247.726 60.6438C249.319 60.6438 250.534 60.1046 251.37 59.0261C252.207 57.9477 252.625 56.4898 252.625 54.6525C253.408 54.5726 254.062 54.8123 254.584 55.3715C255.133 55.8907 255.407 56.6696 255.407 57.7081C255.407 58.9862 255.041 60.1845 254.31 61.3028C253.604 62.4212 252.664 63.3199 251.488 63.9989C250.312 64.6779 249.058 65.0174 247.726 65.0174ZM252.664 47.1035V45.0665C252.664 43.0694 252.207 41.4517 251.292 40.2135C250.404 38.9354 249.215 38.2963 247.726 38.2963C246.236 38.2963 245.034 38.9354 244.12 40.2135C243.231 41.4517 242.787 43.0694 242.787 45.0665V47.1035H252.664Z" fill="#E7E7E7"/>
<path d="M268.201 65.0174C266.607 65.0174 265.183 64.5781 263.929 63.6993C262.675 62.8206 261.695 61.5824 260.99 59.9848C260.31 58.3871 259.971 56.5697 259.971 54.5327V44.8268C259.971 42.7099 260.31 40.8326 260.99 39.195C261.695 37.5574 262.662 36.2792 263.89 35.3606C265.118 34.4419 266.529 33.9826 268.123 33.9826C269.612 33.9826 270.931 34.3221 272.081 35.0011C273.257 35.6402 274.171 36.5588 274.825 37.7571C275.478 38.9553 275.804 40.3134 275.804 41.8312C275.804 42.8297 275.543 43.6485 275.02 44.2876C274.524 44.8867 273.871 45.1463 273.061 45.0665C273.061 43.1492 272.604 41.5915 271.689 40.3932C270.801 39.195 269.638 38.5959 268.201 38.5959C266.764 38.5959 265.601 39.195 264.713 40.3932C263.825 41.5516 263.38 43.0694 263.38 44.9466V54.293C263.38 56.0904 263.838 57.5683 264.752 58.7266C265.667 59.845 266.842 60.4041 268.279 60.4041C269.716 60.4041 270.879 59.805 271.768 58.6068C272.682 57.4085 273.139 55.8707 273.139 53.9935C273.975 53.9136 274.642 54.1732 275.138 54.7723C275.661 55.3315 275.922 56.1304 275.922 57.1689C275.922 58.6866 275.595 60.0447 274.942 61.2429C274.289 62.4412 273.374 63.3798 272.199 64.0588C271.023 64.6979 269.69 65.0174 268.201 65.0174Z" fill="#E7E7E7"/>
<path d="M288.923 38.5959C287.46 38.5959 286.245 39.2749 285.278 40.6329C284.311 41.951 283.828 43.5686 283.828 45.4858V61.183C283.828 62.5011 283.54 63.4797 282.965 64.1187C282.417 64.7179 281.568 65.0174 280.418 65.0174V38.4161C280.418 35.4604 281.515 33.9826 283.71 33.9826V37.6373C283.292 38.3163 283.005 38.9154 282.848 39.4346L283.005 39.6743C284.677 35.8798 286.767 33.9826 289.275 33.9826C290.216 33.9826 290.935 34.342 291.431 35.061C291.927 35.74 292.176 36.5788 292.176 37.5773C292.176 38.2963 292.058 38.9354 291.823 39.4946C291.091 38.8954 290.125 38.5959 288.923 38.5959Z" fill="#E7E7E7"/>
<path d="M302.419 65.0174C300.825 65.0174 299.401 64.5581 298.147 63.6394C296.893 62.6808 295.913 61.3827 295.207 59.7451C294.502 58.0675 294.149 56.1903 294.149 54.1133V45.2462C294.149 43.1293 294.515 41.2121 295.246 39.4946C296.004 37.7771 297.01 36.439 298.264 35.4804C299.545 34.4818 300.929 33.9826 302.419 33.9826C303.908 33.9826 305.267 34.4619 306.495 35.4205C307.749 36.3791 308.729 37.6972 309.434 39.3747C310.166 41.0523 310.531 42.9495 310.531 45.0665V48.9009C310.531 49.5399 310.375 50.0792 310.061 50.5185C309.748 50.9579 309.369 51.1776 308.925 51.1776H297.48V53.8736C297.48 55.9107 297.898 57.5483 298.735 58.7865C299.597 60.0247 300.825 60.6438 302.419 60.6438C304.012 60.6438 305.227 60.1046 306.063 59.0261C306.9 57.9477 307.318 56.4898 307.318 54.6525C308.101 54.5726 308.755 54.8123 309.277 55.3715C309.826 55.8907 310.1 56.6696 310.1 57.7081C310.1 58.9862 309.735 60.1845 309.003 61.3028C308.297 62.4212 307.357 63.3199 306.181 63.9989C305.005 64.6779 303.751 65.0174 302.419 65.0174ZM307.357 47.1035V45.0665C307.357 43.0694 306.9 41.4517 305.985 40.2135C305.097 38.9354 303.908 38.2963 302.419 38.2963C300.929 38.2963 299.727 38.9354 298.813 40.2135C297.925 41.4517 297.48 43.0694 297.48 45.0665V47.1035H307.357Z" fill="#E7E7E7"/>
<path d="M321.86 65.0174C320.005 65.0174 318.62 64.2186 317.705 62.6209C316.791 60.9833 316.334 58.8464 316.334 56.2102V38.7157H312.689C312.689 37.3577 312.885 36.3192 313.277 35.6002C313.669 34.8813 314.204 34.5218 314.884 34.5218H316.373V28.8301C316.373 27.512 316.647 26.5534 317.196 25.9543C317.771 25.3152 318.62 24.9956 319.743 24.9956V34.5218H324.956C324.956 37.3177 324.133 38.7157 322.487 38.7157H319.783V56.0305C319.783 57.6282 319.965 58.7665 320.331 59.4455C320.723 60.0846 321.416 60.4041 322.408 60.4041C323.323 60.4041 324.185 60.0447 324.995 59.3257C325.335 59.845 325.505 60.5439 325.505 61.4227C325.505 62.3813 325.178 63.22 324.525 63.939C323.872 64.658 322.983 65.0174 321.86 65.0174Z" fill="#E7E7E7"/>
<path d="M339.436 65.0174C337.241 65.0174 335.334 64.5381 333.714 63.5795C332.12 62.6209 330.905 61.3428 330.069 59.7451C329.233 58.1474 328.815 56.4299 328.815 54.5926C328.815 53.0748 329.076 51.9165 329.599 51.1177C330.121 50.2789 330.918 49.8595 331.989 49.8595C331.989 53.2545 332.656 55.8508 333.988 57.6482C335.321 59.4056 337.189 60.2843 339.593 60.2843C341.892 60.2843 343.656 59.7052 344.884 58.5468C346.112 57.3486 346.726 55.5911 346.726 53.2745C346.726 51.8765 346.491 50.7382 346.02 49.8595C345.576 48.9408 344.805 48.1619 343.708 47.5229C342.637 46.8439 341.082 46.1649 339.044 45.4858C336.64 44.687 334.733 43.7683 333.322 42.7298C331.911 41.6514 330.879 40.3533 330.226 38.8355C329.573 37.3177 329.246 35.4405 329.246 33.2037C329.246 30.967 329.651 29.0098 330.461 27.3322C331.297 25.6147 332.473 24.2967 333.988 23.378C335.504 22.4593 337.267 22 339.279 22C341.187 22 342.885 22.4194 344.374 23.2582C345.89 24.057 347.065 25.2153 347.902 26.7331C348.764 28.211 349.195 29.8885 349.195 31.7658C349.195 32.9241 348.947 33.8428 348.45 34.5218C347.98 35.1609 347.235 35.4804 346.216 35.4804C345.929 32.4448 345.223 30.228 344.1 28.8301C343.002 27.4321 341.396 26.7331 339.279 26.7331C337.241 26.7331 335.674 27.2923 334.576 28.4107C333.479 29.4891 332.93 31.0269 332.93 33.024C332.93 34.4219 333.126 35.5802 333.518 36.4989C333.936 37.3776 334.628 38.1365 335.595 38.7756C336.588 39.4147 337.973 40.0338 339.75 40.6329C342.415 41.5116 344.505 42.4902 346.02 43.5686C347.562 44.6471 348.672 45.9651 349.352 47.5229C350.031 49.0806 350.371 50.9978 350.371 53.2745C350.371 56.9092 349.378 59.785 347.392 61.902C345.406 63.9789 342.754 65.0174 339.436 65.0174Z" fill="#E7E7E7"/>
<path d="M362.699 65.0174C361.105 65.0174 359.681 64.5781 358.427 63.6993C357.173 62.8206 356.193 61.5824 355.487 59.9848C354.808 58.3871 354.468 56.5697 354.468 54.5327V44.8268C354.468 42.7099 354.808 40.8326 355.487 39.195C356.193 37.5574 357.16 36.2792 358.388 35.3606C359.616 34.4419 361.027 33.9826 362.62 33.9826C364.11 33.9826 365.429 34.3221 366.579 35.0011C367.755 35.6402 368.669 36.5588 369.322 37.7571C369.975 38.9553 370.302 40.3134 370.302 41.8312C370.302 42.8297 370.041 43.6485 369.518 44.2876C369.022 44.8867 368.369 45.1463 367.559 45.0665C367.559 43.1492 367.101 41.5915 366.187 40.3932C365.298 39.195 364.136 38.5959 362.699 38.5959C361.262 38.5959 360.099 39.195 359.211 40.3932C358.322 41.5516 357.878 43.0694 357.878 44.9466V54.293C357.878 56.0904 358.335 57.5683 359.25 58.7266C360.164 59.845 361.34 60.4041 362.777 60.4041C364.214 60.4041 365.377 59.805 366.265 58.6068C367.18 57.4085 367.637 55.8707 367.637 53.9935C368.473 53.9136 369.139 54.1732 369.636 54.7723C370.158 55.3315 370.42 56.1304 370.42 57.1689C370.42 58.6866 370.093 60.0447 369.44 61.2429C368.787 62.4412 367.872 63.3798 366.696 64.0588C365.521 64.6979 364.188 65.0174 362.699 65.0174Z" fill="#E7E7E7"/>
<path d="M383.42 38.5959C381.957 38.5959 380.742 39.2749 379.776 40.6329C378.809 41.951 378.325 43.5686 378.325 45.4858V61.183C378.325 62.5011 378.038 63.4797 377.463 64.1187C376.914 64.7179 376.065 65.0174 374.916 65.0174V38.4161C374.916 35.4604 376.013 33.9826 378.208 33.9826V37.6373C377.79 38.3163 377.502 38.9154 377.346 39.4346L377.502 39.6743C379.175 35.8798 381.265 33.9826 383.773 33.9826C384.714 33.9826 385.432 34.342 385.929 35.061C386.425 35.74 386.673 36.5788 386.673 37.5773C386.673 38.2963 386.556 38.9354 386.321 39.4946C385.589 38.8954 384.622 38.5959 383.42 38.5959Z" fill="#E7E7E7"/>
<path d="M392.391 29.4891C391.659 29.4891 391.045 29.1296 390.549 28.4107C390.052 27.6917 389.804 26.793 389.804 25.7146C389.804 24.6362 390.052 23.7574 390.549 23.0784C391.045 22.3595 391.659 22 392.391 22C393.096 22 393.697 22.3595 394.194 23.0784C394.69 23.7574 394.938 24.6362 394.938 25.7146C394.938 26.793 394.69 27.6917 394.194 28.4107C393.697 29.1296 393.096 29.4891 392.391 29.4891ZM390.666 37.817C390.666 36.4989 390.941 35.5403 391.489 34.9412C392.064 34.3021 392.926 33.9826 394.076 33.9826V61.183C394.076 62.5011 393.789 63.4797 393.214 64.1187C392.665 64.7179 391.816 65.0174 390.666 65.0174V37.817Z" fill="#E7E7E7"/>
<path d="M400.444 38.2364C400.444 36.9183 400.705 35.8798 401.228 35.1209C401.777 34.362 402.6 33.9826 403.697 33.9826V37.3377L402.913 38.8954L403.031 39.1351C403.841 37.5374 404.768 36.2792 405.814 35.3606C406.859 34.4419 408.1 33.9826 409.537 33.9826C411.784 33.9826 413.6 34.9412 414.985 36.8584C416.369 38.7357 417.062 41.252 417.062 44.4074V54.6525C417.062 57.8079 416.343 60.3243 414.906 62.2015C413.469 64.0788 411.601 65.0174 409.302 65.0174C408.074 65.0174 406.937 64.638 405.892 63.8791C404.873 63.0802 403.971 62.0418 403.188 60.7636L403.07 61.0632C403.253 61.4626 403.527 61.902 403.893 62.3813V72.9259C403.893 75.642 402.743 77 400.444 77V38.2364ZM408.792 60.4041C410.334 60.4041 411.536 59.8849 412.398 58.8464C413.26 57.768 413.691 56.2901 413.691 54.4129V44.6471C413.691 42.6899 413.26 41.1921 412.398 40.1536C411.536 39.1151 410.321 38.5959 408.753 38.5959C407.368 38.5959 406.205 39.155 405.265 40.2734C404.324 41.3519 403.854 42.7099 403.854 44.3475V54.7124C403.854 56.3101 404.298 57.6681 405.186 58.7865C406.075 59.8649 407.277 60.4041 408.792 60.4041Z" fill="#E7E7E7"/>
<path d="M428.95 65.0174C427.094 65.0174 425.71 64.2186 424.795 62.6209C423.881 60.9833 423.423 58.8464 423.423 56.2102V38.7157H419.779C419.779 37.3577 419.975 36.3192 420.366 35.6002C420.758 34.8813 421.294 34.5218 421.973 34.5218H423.463V28.8301C423.463 27.512 423.737 26.5534 424.286 25.9543C424.86 25.3152 425.71 24.9956 426.833 24.9956V34.5218H432.046C432.046 37.3177 431.223 38.7157 429.577 38.7157H426.872V56.0305C426.872 57.6282 427.055 58.7665 427.421 59.4455C427.813 60.0846 428.505 60.4041 429.498 60.4041C430.413 60.4041 431.275 60.0447 432.085 59.3257C432.425 59.845 432.594 60.5439 432.594 61.4227C432.594 62.3813 432.268 63.22 431.615 63.939C430.961 64.658 430.073 65.0174 428.95 65.0174Z" fill="#E7E7E7"/>
<path d="M444.605 65.0174C443.011 65.0174 441.587 64.5581 440.333 63.6394C439.079 62.6808 438.099 61.3827 437.394 59.7451C436.688 58.0675 436.336 56.1903 436.336 54.1133V45.2462C436.336 43.1293 436.702 41.2121 437.433 39.4946C438.191 37.7771 439.197 36.439 440.451 35.4804C441.731 34.4818 443.116 33.9826 444.605 33.9826C446.095 33.9826 447.453 34.4619 448.681 35.4205C449.935 36.3791 450.915 37.6972 451.621 39.3747C452.352 41.0523 452.718 42.9495 452.718 45.0665V48.9009C452.718 49.5399 452.561 50.0792 452.248 50.5185C451.934 50.9579 451.555 51.1776 451.111 51.1776H439.667V53.8736C439.667 55.9107 440.085 57.5483 440.921 58.7865C441.783 60.0247 443.011 60.6438 444.605 60.6438C446.199 60.6438 447.414 60.1046 448.25 59.0261C449.086 57.9477 449.504 56.4898 449.504 54.6525C450.288 54.5726 450.941 54.8123 451.464 55.3715C452.013 55.8907 452.287 56.6696 452.287 57.7081C452.287 58.9862 451.921 60.1845 451.19 61.3028C450.484 62.4212 449.544 63.3199 448.368 63.9989C447.192 64.6779 445.938 65.0174 444.605 65.0174ZM449.544 47.1035V45.0665C449.544 43.0694 449.086 41.4517 448.172 40.2135C447.283 38.9354 446.095 38.2963 444.605 38.2963C443.116 38.2963 441.914 38.9354 441 40.2135C440.111 41.4517 439.667 43.0694 439.667 45.0665V47.1035H449.544Z" fill="#E7E7E7"/>
<path d="M465.747 38.5959C464.284 38.5959 463.069 39.2749 462.102 40.6329C461.135 41.951 460.652 43.5686 460.652 45.4858V61.183C460.652 62.5011 460.365 63.4797 459.79 64.1187C459.241 64.7179 458.392 65.0174 457.242 65.0174V38.4161C457.242 35.4604 458.34 33.9826 460.534 33.9826V37.6373C460.116 38.3163 459.829 38.9154 459.672 39.4346L459.829 39.6743C461.501 35.8798 463.591 33.9826 466.1 33.9826C467.04 33.9826 467.759 34.342 468.255 35.061C468.752 35.74 469 36.5788 469 37.5773C469 38.2963 468.882 38.9354 468.647 39.4946C467.916 38.8954 466.949 38.5959 465.747 38.5959Z" fill="#E7E7E7"/>
<path d="M107 26.6732C107 25.1954 107.327 24.057 107.98 23.2582C108.633 22.4194 109.534 22 110.684 22L120.169 56.8094L119.424 59.6253L119.698 59.805L129.731 22C130.881 22 131.783 22.4194 132.436 23.2582C133.115 24.097 133.455 25.2553 133.455 26.7331V65.0174C131.025 65.0174 129.81 63.4797 129.81 60.4041V35.1808L130.829 31.0468L130.515 30.927L121.775 63.3998C121.645 63.8791 121.436 64.2585 121.148 64.5381C120.861 64.8577 120.561 65.0174 120.247 65.0174C119.907 65.0174 119.594 64.8776 119.306 64.598C119.019 64.3184 118.81 63.919 118.679 63.3998L109.939 30.8671L109.626 31.0468L110.645 35.1209V60.4041C110.645 61.9219 110.331 63.0802 109.704 63.8791C109.103 64.638 108.202 65.0174 107 65.0174V26.6732Z" stroke="#1C1C1C" stroke-width="2" mask="url(#path-7-outside-1_243_1955)"/>
<path d="M146.405 65.0174C144.811 65.0174 143.361 64.5581 142.055 63.6394C140.774 62.7208 139.768 61.4826 139.037 59.9248C138.331 58.3272 137.979 56.5497 137.979 54.5926V44.7669C137.979 42.7698 138.331 40.9524 139.037 39.3148C139.768 37.6772 140.774 36.3791 142.055 35.4205C143.335 34.4619 144.785 33.9826 146.405 33.9826C148.025 33.9826 149.475 34.4619 150.755 35.4205C152.062 36.3791 153.068 37.6772 153.773 39.3148C154.505 40.9524 154.871 42.7698 154.871 44.7669V54.5926C154.871 56.5497 154.505 58.3272 153.773 59.9248C153.042 61.4826 152.036 62.7208 150.755 63.6394C149.475 64.5581 148.025 65.0174 146.405 65.0174ZM146.405 60.524C147.973 60.524 149.214 59.9648 150.128 58.8464C151.069 57.6881 151.539 56.1903 151.539 54.3529V44.9466C151.539 43.0294 151.069 41.4717 150.128 40.2734C149.214 39.0752 147.973 38.476 146.405 38.476C144.863 38.476 143.622 39.0752 142.682 40.2734C141.741 41.4717 141.271 43.0294 141.271 44.9466V54.3529C141.271 56.1903 141.728 57.6881 142.643 58.8464C143.583 59.9648 144.837 60.524 146.405 60.524Z" stroke="#1C1C1C" stroke-width="2" mask="url(#path-7-outside-1_243_1955)"/>
<path d="M167.901 38.5959C166.438 38.5959 165.223 39.2749 164.256 40.6329C163.29 41.951 162.806 43.5686 162.806 45.4858V61.183C162.806 62.5011 162.519 63.4797 161.944 64.1187C161.395 64.7179 160.546 65.0174 159.397 65.0174V38.4161C159.397 35.4604 160.494 33.9826 162.689 33.9826V37.6373C162.271 38.3163 161.983 38.9154 161.827 39.4346L161.983 39.6743C163.656 35.8798 165.746 33.9826 168.254 33.9826C169.195 33.9826 169.913 34.342 170.41 35.061C170.906 35.74 171.154 36.5788 171.154 37.5773C171.154 38.2963 171.037 38.9354 170.802 39.4946C170.07 38.8954 169.103 38.5959 167.901 38.5959Z" stroke="#1C1C1C" stroke-width="2" mask="url(#path-7-outside-1_243_1955)"/>
<path d="M181.379 65.0174C180.046 65.0174 178.792 64.7179 177.616 64.1187C176.441 63.4797 175.487 62.581 174.755 61.4227C174.05 60.2643 173.697 58.9063 173.697 57.3486C173.697 55.4314 174.455 54.3929 175.97 54.2331C176.232 56.4699 176.846 58.1275 177.812 59.2059C178.805 60.2444 180.059 60.7636 181.575 60.7636C183.09 60.7636 184.266 60.4241 185.102 59.7451C185.938 59.0661 186.356 58.0276 186.356 56.6296C186.356 55.6311 186.186 54.8322 185.847 54.2331C185.507 53.594 184.958 53.0548 184.201 52.6155C183.469 52.1362 182.411 51.6768 181.026 51.2375C179.302 50.6383 177.93 49.9993 176.911 49.3203C175.892 48.6413 175.108 47.7426 174.559 46.6242C174.037 45.5058 173.776 44.028 173.776 42.1906C173.776 40.6329 174.089 39.2349 174.716 37.9967C175.343 36.7186 176.206 35.74 177.303 35.061C178.426 34.342 179.694 33.9826 181.105 33.9826C182.411 33.9826 183.639 34.2622 184.789 34.8214C185.964 35.3805 186.905 36.1794 187.61 37.2179C188.342 38.2564 188.708 39.4546 188.708 40.8126C188.708 41.7313 188.473 42.4702 188.002 43.0294C187.532 43.5487 186.879 43.8482 186.043 43.9281C185.964 42.1707 185.494 40.7927 184.632 39.7941C183.796 38.7556 182.62 38.2364 181.105 38.2364C179.85 38.2364 178.858 38.5959 178.126 39.3148C177.394 40.0338 177.029 40.9924 177.029 42.1906C177.029 43.4688 177.368 44.4274 178.048 45.0665C178.753 45.6656 179.942 46.2447 181.614 46.8039C184.358 47.6427 186.369 48.801 187.65 50.2789C188.956 51.7168 189.609 53.7738 189.609 56.4499C189.609 59.1659 188.891 61.2829 187.454 62.8007C186.017 64.2785 183.992 65.0174 181.379 65.0174Z" stroke="#1C1C1C" stroke-width="2" mask="url(#path-7-outside-1_243_1955)"/>
<path d="M201.989 65.0174C200.395 65.0174 198.971 64.5581 197.717 63.6394C196.462 62.6808 195.483 61.3827 194.777 59.7451C194.072 58.0675 193.719 56.1903 193.719 54.1133V45.2462C193.719 43.1293 194.085 41.2121 194.816 39.4946C195.574 37.7771 196.58 36.439 197.834 35.4804C199.114 34.4818 200.499 33.9826 201.989 33.9826C203.478 33.9826 204.836 34.4619 206.064 35.4205C207.319 36.3791 208.298 37.6972 209.004 39.3747C209.736 41.0523 210.101 42.9495 210.101 45.0665V48.9009C210.101 49.5399 209.945 50.0792 209.631 50.5185C209.317 50.9579 208.939 51.1776 208.494 51.1776H197.05V53.8736C197.05 55.9107 197.468 57.5483 198.304 58.7865C199.167 60.0247 200.395 60.6438 201.989 60.6438C203.582 60.6438 204.797 60.1046 205.633 59.0261C206.469 57.9477 206.888 56.4898 206.888 54.6525C207.671 54.5726 208.325 54.8123 208.847 55.3715C209.396 55.8907 209.67 56.6696 209.67 57.7081C209.67 58.9862 209.304 60.1845 208.573 61.3028C207.867 62.4212 206.927 63.3199 205.751 63.9989C204.575 64.6779 203.321 65.0174 201.989 65.0174ZM206.927 47.1035V45.0665C206.927 43.0694 206.469 41.4517 205.555 40.2135C204.667 38.9354 203.478 38.2963 201.989 38.2963C200.499 38.2963 199.297 38.9354 198.383 40.2135C197.494 41.4517 197.05 43.0694 197.05 45.0665V47.1035H206.927Z" stroke="#1C1C1C" stroke-width="2" mask="url(#path-7-outside-1_243_1955)"/>
<path d="M224.424 65.0174C222.229 65.0174 220.321 64.5381 218.702 63.5795C217.108 62.6209 215.893 61.3428 215.057 59.7451C214.221 58.1474 213.803 56.4299 213.803 54.5926C213.803 53.0748 214.064 51.9165 214.586 51.1177C215.109 50.2789 215.906 49.8595 216.977 49.8595C216.977 53.2545 217.643 55.8508 218.976 57.6482C220.308 59.4056 222.177 60.2843 224.58 60.2843C226.88 60.2843 228.643 59.7052 229.871 58.5468C231.099 57.3486 231.713 55.5911 231.713 53.2745C231.713 51.8765 231.478 50.7382 231.008 49.8595C230.564 48.9408 229.793 48.1619 228.696 47.5229C227.624 46.8439 226.07 46.1649 224.032 45.4858C221.628 44.687 219.721 43.7683 218.31 42.7298C216.899 41.6514 215.867 40.3533 215.213 38.8355C214.56 37.3177 214.234 35.4405 214.234 33.2037C214.234 30.967 214.639 29.0098 215.449 27.3322C216.285 25.6147 217.46 24.2967 218.976 23.378C220.491 22.4593 222.255 22 224.267 22C226.174 22 227.873 22.4194 229.362 23.2582C230.877 24.057 232.053 25.2153 232.889 26.7331C233.751 28.211 234.182 29.8885 234.182 31.7658C234.182 32.9241 233.934 33.8428 233.438 34.5218C232.968 35.1609 232.223 35.4804 231.204 35.4804C230.916 32.4448 230.211 30.228 229.087 28.8301C227.99 27.4321 226.383 26.7331 224.267 26.7331C222.229 26.7331 220.661 27.2923 219.564 28.4107C218.466 29.4891 217.918 31.0269 217.918 33.024C217.918 34.4219 218.114 35.5802 218.506 36.4989C218.924 37.3776 219.616 38.1365 220.583 38.7756C221.576 39.4147 222.96 40.0338 224.737 40.6329C227.402 41.5116 229.492 42.4902 231.008 43.5686C232.549 44.6471 233.66 45.9651 234.339 47.5229C235.019 49.0806 235.358 50.9978 235.358 53.2745C235.358 56.9092 234.365 59.785 232.38 61.902C230.394 63.9789 227.742 65.0174 224.424 65.0174Z" stroke="#1C1C1C" stroke-width="2" mask="url(#path-7-outside-1_243_1955)"/>
<path d="M247.726 65.0174C246.132 65.0174 244.708 64.5581 243.454 63.6394C242.199 62.6808 241.22 61.3827 240.514 59.7451C239.809 58.0675 239.456 56.1903 239.456 54.1133V45.2462C239.456 43.1293 239.822 41.2121 240.553 39.4946C241.311 37.7771 242.317 36.439 243.571 35.4804C244.851 34.4818 246.236 33.9826 247.726 33.9826C249.215 33.9826 250.574 34.4619 251.802 35.4205C253.056 36.3791 254.035 37.6972 254.741 39.3747C255.473 41.0523 255.838 42.9495 255.838 45.0665V48.9009C255.838 49.5399 255.682 50.0792 255.368 50.5185C255.054 50.9579 254.676 51.1776 254.231 51.1776H242.787V53.8736C242.787 55.9107 243.205 57.5483 244.041 58.7865C244.904 60.0247 246.132 60.6438 247.726 60.6438C249.319 60.6438 250.534 60.1046 251.37 59.0261C252.207 57.9477 252.625 56.4898 252.625 54.6525C253.408 54.5726 254.062 54.8123 254.584 55.3715C255.133 55.8907 255.407 56.6696 255.407 57.7081C255.407 58.9862 255.041 60.1845 254.31 61.3028C253.604 62.4212 252.664 63.3199 251.488 63.9989C250.312 64.6779 249.058 65.0174 247.726 65.0174ZM252.664 47.1035V45.0665C252.664 43.0694 252.207 41.4517 251.292 40.2135C250.404 38.9354 249.215 38.2963 247.726 38.2963C246.236 38.2963 245.034 38.9354 244.12 40.2135C243.231 41.4517 242.787 43.0694 242.787 45.0665V47.1035H252.664Z" stroke="#1C1C1C" stroke-width="2" mask="url(#path-7-outside-1_243_1955)"/>
<path d="M268.201 65.0174C266.607 65.0174 265.183 64.5781 263.929 63.6993C262.675 62.8206 261.695 61.5824 260.99 59.9848C260.31 58.3871 259.971 56.5697 259.971 54.5327V44.8268C259.971 42.7099 260.31 40.8326 260.99 39.195C261.695 37.5574 262.662 36.2792 263.89 35.3606C265.118 34.4419 266.529 33.9826 268.123 33.9826C269.612 33.9826 270.931 34.3221 272.081 35.0011C273.257 35.6402 274.171 36.5588 274.825 37.7571C275.478 38.9553 275.804 40.3134 275.804 41.8312C275.804 42.8297 275.543 43.6485 275.02 44.2876C274.524 44.8867 273.871 45.1463 273.061 45.0665C273.061 43.1492 272.604 41.5915 271.689 40.3932C270.801 39.195 269.638 38.5959 268.201 38.5959C266.764 38.5959 265.601 39.195 264.713 40.3932C263.825 41.5516 263.38 43.0694 263.38 44.9466V54.293C263.38 56.0904 263.838 57.5683 264.752 58.7266C265.667 59.845 266.842 60.4041 268.279 60.4041C269.716 60.4041 270.879 59.805 271.768 58.6068C272.682 57.4085 273.139 55.8707 273.139 53.9935C273.975 53.9136 274.642 54.1732 275.138 54.7723C275.661 55.3315 275.922 56.1304 275.922 57.1689C275.922 58.6866 275.595 60.0447 274.942 61.2429C274.289 62.4412 273.374 63.3798 272.199 64.0588C271.023 64.6979 269.69 65.0174 268.201 65.0174Z" stroke="#1C1C1C" stroke-width="2" mask="url(#path-7-outside-1_243_1955)"/>
<path d="M288.923 38.5959C287.46 38.5959 286.245 39.2749 285.278 40.6329C284.311 41.951 283.828 43.5686 283.828 45.4858V61.183C283.828 62.5011 283.54 63.4797 282.965 64.1187C282.417 64.7179 281.568 65.0174 280.418 65.0174V38.4161C280.418 35.4604 281.515 33.9826 283.71 33.9826V37.6373C283.292 38.3163 283.005 38.9154 282.848 39.4346L283.005 39.6743C284.677 35.8798 286.767 33.9826 289.275 33.9826C290.216 33.9826 290.935 34.342 291.431 35.061C291.927 35.74 292.176 36.5788 292.176 37.5773C292.176 38.2963 292.058 38.9354 291.823 39.4946C291.091 38.8954 290.125 38.5959 288.923 38.5959Z" stroke="#1C1C1C" stroke-width="2" mask="url(#path-7-outside-1_243_1955)"/>
<path d="M302.419 65.0174C300.825 65.0174 299.401 64.5581 298.147 63.6394C296.893 62.6808 295.913 61.3827 295.207 59.7451C294.502 58.0675 294.149 56.1903 294.149 54.1133V45.2462C294.149 43.1293 294.515 41.2121 295.246 39.4946C296.004 37.7771 297.01 36.439 298.264 35.4804C299.545 34.4818 300.929 33.9826 302.419 33.9826C303.908 33.9826 305.267 34.4619 306.495 35.4205C307.749 36.3791 308.729 37.6972 309.434 39.3747C310.166 41.0523 310.531 42.9495 310.531 45.0665V48.9009C310.531 49.5399 310.375 50.0792 310.061 50.5185C309.748 50.9579 309.369 51.1776 308.925 51.1776H297.48V53.8736C297.48 55.9107 297.898 57.5483 298.735 58.7865C299.597 60.0247 300.825 60.6438 302.419 60.6438C304.012 60.6438 305.227 60.1046 306.063 59.0261C306.9 57.9477 307.318 56.4898 307.318 54.6525C308.101 54.5726 308.755 54.8123 309.277 55.3715C309.826 55.8907 310.1 56.6696 310.1 57.7081C310.1 58.9862 309.735 60.1845 309.003 61.3028C308.297 62.4212 307.357 63.3199 306.181 63.9989C305.005 64.6779 303.751 65.0174 302.419 65.0174ZM307.357 47.1035V45.0665C307.357 43.0694 306.9 41.4517 305.985 40.2135C305.097 38.9354 303.908 38.2963 302.419 38.2963C300.929 38.2963 299.727 38.9354 298.813 40.2135C297.925 41.4517 297.48 43.0694 297.48 45.0665V47.1035H307.357Z" stroke="#1C1C1C" stroke-width="2" mask="url(#path-7-outside-1_243_1955)"/>
<path d="M321.86 65.0174C320.005 65.0174 318.62 64.2186 317.705 62.6209C316.791 60.9833 316.334 58.8464 316.334 56.2102V38.7157H312.689C312.689 37.3577 312.885 36.3192 313.277 35.6002C313.669 34.8813 314.204 34.5218 314.884 34.5218H316.373V28.8301C316.373 27.512 316.647 26.5534 317.196 25.9543C317.771 25.3152 318.62 24.9956 319.743 24.9956V34.5218H324.956C324.956 37.3177 324.133 38.7157 322.487 38.7157H319.783V56.0305C319.783 57.6282 319.965 58.7665 320.331 59.4455C320.723 60.0846 321.416 60.4041 322.408 60.4041C323.323 60.4041 324.185 60.0447 324.995 59.3257C325.335 59.845 325.505 60.5439 325.505 61.4227C325.505 62.3813 325.178 63.22 324.525 63.939C323.872 64.658 322.983 65.0174 321.86 65.0174Z" stroke="#1C1C1C" stroke-width="2" mask="url(#path-7-outside-1_243_1955)"/>
<path d="M339.436 65.0174C337.241 65.0174 335.334 64.5381 333.714 63.5795C332.12 62.6209 330.905 61.3428 330.069 59.7451C329.233 58.1474 328.815 56.4299 328.815 54.5926C328.815 53.0748 329.076 51.9165 329.599 51.1177C330.121 50.2789 330.918 49.8595 331.989 49.8595C331.989 53.2545 332.656 55.8508 333.988 57.6482C335.321 59.4056 337.189 60.2843 339.593 60.2843C341.892 60.2843 343.656 59.7052 344.884 58.5468C346.112 57.3486 346.726 55.5911 346.726 53.2745C346.726 51.8765 346.491 50.7382 346.02 49.8595C345.576 48.9408 344.805 48.1619 343.708 47.5229C342.637 46.8439 341.082 46.1649 339.044 45.4858C336.64 44.687 334.733 43.7683 333.322 42.7298C331.911 41.6514 330.879 40.3533 330.226 38.8355C329.573 37.3177 329.246 35.4405 329.246 33.2037C329.246 30.967 329.651 29.0098 330.461 27.3322C331.297 25.6147 332.473 24.2967 333.988 23.378C335.504 22.4593 337.267 22 339.279 22C341.187 22 342.885 22.4194 344.374 23.2582C345.89 24.057 347.065 25.2153 347.902 26.7331C348.764 28.211 349.195 29.8885 349.195 31.7658C349.195 32.9241 348.947 33.8428 348.45 34.5218C347.98 35.1609 347.235 35.4804 346.216 35.4804C345.929 32.4448 345.223 30.228 344.1 28.8301C343.002 27.4321 341.396 26.7331 339.279 26.7331C337.241 26.7331 335.674 27.2923 334.576 28.4107C333.479 29.4891 332.93 31.0269 332.93 33.024C332.93 34.4219 333.126 35.5802 333.518 36.4989C333.936 37.3776 334.628 38.1365 335.595 38.7756C336.588 39.4147 337.973 40.0338 339.75 40.6329C342.415 41.5116 344.505 42.4902 346.02 43.5686C347.562 44.6471 348.672 45.9651 349.352 47.5229C350.031 49.0806 350.371 50.9978 350.371 53.2745C350.371 56.9092 349.378 59.785 347.392 61.902C345.406 63.9789 342.754 65.0174 339.436 65.0174Z" stroke="#1C1C1C" stroke-width="2" mask="url(#path-7-outside-1_243_1955)"/>
<path d="M362.699 65.0174C361.105 65.0174 359.681 64.5781 358.427 63.6993C357.173 62.8206 356.193 61.5824 355.487 59.9848C354.808 58.3871 354.468 56.5697 354.468 54.5327V44.8268C354.468 42.7099 354.808 40.8326 355.487 39.195C356.193 37.5574 357.16 36.2792 358.388 35.3606C359.616 34.4419 361.027 33.9826 362.62 33.9826C364.11 33.9826 365.429 34.3221 366.579 35.0011C367.755 35.6402 368.669 36.5588 369.322 37.7571C369.975 38.9553 370.302 40.3134 370.302 41.8312C370.302 42.8297 370.041 43.6485 369.518 44.2876C369.022 44.8867 368.369 45.1463 367.559 45.0665C367.559 43.1492 367.101 41.5915 366.187 40.3932C365.298 39.195 364.136 38.5959 362.699 38.5959C361.262 38.5959 360.099 39.195 359.211 40.3932C358.322 41.5516 357.878 43.0694 357.878 44.9466V54.293C357.878 56.0904 358.335 57.5683 359.25 58.7266C360.164 59.845 361.34 60.4041 362.777 60.4041C364.214 60.4041 365.377 59.805 366.265 58.6068C367.18 57.4085 367.637 55.8707 367.637 53.9935C368.473 53.9136 369.139 54.1732 369.636 54.7723C370.158 55.3315 370.42 56.1304 370.42 57.1689C370.42 58.6866 370.093 60.0447 369.44 61.2429C368.787 62.4412 367.872 63.3798 366.696 64.0588C365.521 64.6979 364.188 65.0174 362.699 65.0174Z" stroke="#1C1C1C" stroke-width="2" mask="url(#path-7-outside-1_243_1955)"/>
<path d="M383.42 38.5959C381.957 38.5959 380.742 39.2749 379.776 40.6329C378.809 41.951 378.325 43.5686 378.325 45.4858V61.183C378.325 62.5011 378.038 63.4797 377.463 64.1187C376.914 64.7179 376.065 65.0174 374.916 65.0174V38.4161C374.916 35.4604 376.013 33.9826 378.208 33.9826V37.6373C377.79 38.3163 377.502 38.9154 377.346 39.4346L377.502 39.6743C379.175 35.8798 381.265 33.9826 383.773 33.9826C384.714 33.9826 385.432 34.342 385.929 35.061C386.425 35.74 386.673 36.5788 386.673 37.5773C386.673 38.2963 386.556 38.9354 386.321 39.4946C385.589 38.8954 384.622 38.5959 383.42 38.5959Z" stroke="#1C1C1C" stroke-width="2" mask="url(#path-7-outside-1_243_1955)"/>
<path d="M392.391 29.4891C391.659 29.4891 391.045 29.1296 390.549 28.4107C390.052 27.6917 389.804 26.793 389.804 25.7146C389.804 24.6362 390.052 23.7574 390.549 23.0784C391.045 22.3595 391.659 22 392.391 22C393.096 22 393.697 22.3595 394.194 23.0784C394.69 23.7574 394.938 24.6362 394.938 25.7146C394.938 26.793 394.69 27.6917 394.194 28.4107C393.697 29.1296 393.096 29.4891 392.391 29.4891ZM390.666 37.817C390.666 36.4989 390.941 35.5403 391.489 34.9412C392.064 34.3021 392.926 33.9826 394.076 33.9826V61.183C394.076 62.5011 393.789 63.4797 393.214 64.1187C392.665 64.7179 391.816 65.0174 390.666 65.0174V37.817Z" stroke="#1C1C1C" stroke-width="2" mask="url(#path-7-outside-1_243_1955)"/>
<path d="M400.444 38.2364C400.444 36.9183 400.705 35.8798 401.228 35.1209C401.777 34.362 402.6 33.9826 403.697 33.9826V37.3377L402.913 38.8954L403.031 39.1351C403.841 37.5374 404.768 36.2792 405.814 35.3606C406.859 34.4419 408.1 33.9826 409.537 33.9826C411.784 33.9826 413.6 34.9412 414.985 36.8584C416.369 38.7357 417.062 41.252 417.062 44.4074V54.6525C417.062 57.8079 416.343 60.3243 414.906 62.2015C413.469 64.0788 411.601 65.0174 409.302 65.0174C408.074 65.0174 406.937 64.638 405.892 63.8791C404.873 63.0802 403.971 62.0418 403.188 60.7636L403.07 61.0632C403.253 61.4626 403.527 61.902 403.893 62.3813V72.9259C403.893 75.642 402.743 77 400.444 77V38.2364ZM408.792 60.4041C410.334 60.4041 411.536 59.8849 412.398 58.8464C413.26 57.768 413.691 56.2901 413.691 54.4129V44.6471C413.691 42.6899 413.26 41.1921 412.398 40.1536C411.536 39.1151 410.321 38.5959 408.753 38.5959C407.368 38.5959 406.205 39.155 405.265 40.2734C404.324 41.3519 403.854 42.7099 403.854 44.3475V54.7124C403.854 56.3101 404.298 57.6681 405.186 58.7865C406.075 59.8649 407.277 60.4041 408.792 60.4041Z" stroke="#1C1C1C" stroke-width="2" mask="url(#path-7-outside-1_243_1955)"/>
<path d="M428.95 65.0174C427.094 65.0174 425.71 64.2186 424.795 62.6209C423.881 60.9833 423.423 58.8464 423.423 56.2102V38.7157H419.779C419.779 37.3577 419.975 36.3192 420.366 35.6002C420.758 34.8813 421.294 34.5218 421.973 34.5218H423.463V28.8301C423.463 27.512 423.737 26.5534 424.286 25.9543C424.86 25.3152 425.71 24.9956 426.833 24.9956V34.5218H432.046C432.046 37.3177 431.223 38.7157 429.577 38.7157H426.872V56.0305C426.872 57.6282 427.055 58.7665 427.421 59.4455C427.813 60.0846 428.505 60.4041 429.498 60.4041C430.413 60.4041 431.275 60.0447 432.085 59.3257C432.425 59.845 432.594 60.5439 432.594 61.4227C432.594 62.3813 432.268 63.22 431.615 63.939C430.961 64.658 430.073 65.0174 428.95 65.0174Z" stroke="#1C1C1C" stroke-width="2" mask="url(#path-7-outside-1_243_1955)"/>
<path d="M444.605 65.0174C443.011 65.0174 441.587 64.5581 440.333 63.6394C439.079 62.6808 438.099 61.3827 437.394 59.7451C436.688 58.0675 436.336 56.1903 436.336 54.1133V45.2462C436.336 43.1293 436.702 41.2121 437.433 39.4946C438.191 37.7771 439.197 36.439 440.451 35.4804C441.731 34.4818 443.116 33.9826 444.605 33.9826C446.095 33.9826 447.453 34.4619 448.681 35.4205C449.935 36.3791 450.915 37.6972 451.621 39.3747C452.352 41.0523 452.718 42.9495 452.718 45.0665V48.9009C452.718 49.5399 452.561 50.0792 452.248 50.5185C451.934 50.9579 451.555 51.1776 451.111 51.1776H439.667V53.8736C439.667 55.9107 440.085 57.5483 440.921 58.7865C441.783 60.0247 443.011 60.6438 444.605 60.6438C446.199 60.6438 447.414 60.1046 448.25 59.0261C449.086 57.9477 449.504 56.4898 449.504 54.6525C450.288 54.5726 450.941 54.8123 451.464 55.3715C452.013 55.8907 452.287 56.6696 452.287 57.7081C452.287 58.9862 451.921 60.1845 451.19 61.3028C450.484 62.4212 449.544 63.3199 448.368 63.9989C447.192 64.6779 445.938 65.0174 444.605 65.0174ZM449.544 47.1035V45.0665C449.544 43.0694 449.086 41.4517 448.172 40.2135C447.283 38.9354 446.095 38.2963 444.605 38.2963C443.116 38.2963 441.914 38.9354 441 40.2135C440.111 41.4517 439.667 43.0694 439.667 45.0665V47.1035H449.544Z" stroke="#1C1C1C" stroke-width="2" mask="url(#path-7-outside-1_243_1955)"/>
<path d="M465.747 38.5959C464.284 38.5959 463.069 39.2749 462.102 40.6329C461.135 41.951 460.652 43.5686 460.652 45.4858V61.183C460.652 62.5011 460.365 63.4797 459.79 64.1187C459.241 64.7179 458.392 65.0174 457.242 65.0174V38.4161C457.242 35.4604 458.34 33.9826 460.534 33.9826V37.6373C460.116 38.3163 459.829 38.9154 459.672 39.4346L459.829 39.6743C461.501 35.8798 463.591 33.9826 466.1 33.9826C467.04 33.9826 467.759 34.342 468.255 35.061C468.752 35.74 469 36.5788 469 37.5773C469 38.2963 468.882 38.9354 468.647 39.4946C467.916 38.8954 466.949 38.5959 465.747 38.5959Z" stroke="#1C1C1C" stroke-width="2" mask="url(#path-7-outside-1_243_1955)"/>
</g>
<defs>
<filter id="filter0_d_243_1955" x="102" y="21" width="372" height="65" filterUnits="userSpaceOnUse" color-interpolation-filters="sRGB">
<feFlood flood-opacity="0" result="BackgroundImageFix"/>
<feColorMatrix in="SourceAlpha" type="matrix" values="0 0 0 0 0 0 0 0 0 0 0 0 0 0 0 0 0 0 127 0" result="hardAlpha"/>
<feOffset dy="4"/>
<feGaussianBlur stdDeviation="2"/>
<feComposite in2="hardAlpha" operator="out"/>
<feColorMatrix type="matrix" values="0 0 0 0 0 0 0 0 0 0 0 0 0 0 0 0 0 0 0.25 0"/>
<feBlend mode="normal" in2="BackgroundImageFix" result="effect1_dropShadow_243_1955"/>
<feBlend mode="normal" in="SourceGraphic" in2="effect1_dropShadow_243_1955" result="shape"/>
</filter>
</defs>
</svg>
