<svg xmlns="http://www.w3.org/2000/svg" width="32" height="32" fill="none"><rect width="31" height="31" x=".5" y=".5" fill="#F2F2F2" stroke="#000" rx="2.5"/><path fill="#000" d="M3 24.455V7h6.886q1.978 0 3.375.707 1.406.699 2.14 1.986.741 1.279.741 3.009 0 1.739-.75 2.991-.75 1.245-2.173 1.91-1.415.663-3.426.664H5.182v-2.966h4.014q1.057 0 1.756-.29.698-.29 1.04-.869.348-.579.349-1.44 0-.87-.35-1.466-.34-.598-1.048-.904-.699-.315-1.764-.315H6.69v14.438zm9.426-7.944 4.338 7.944H12.69L8.446 16.51zm12.557-7.056h-4.5v9h-5l7 7 7-7h-4.5z"/></svg>